ply
format ascii 1.0
element vertex 128
property float x
property float y
property float z
element face 128
property list uchar int vertex_index
end_header
0.725000 0.000000 0.000000
0.721509 0.071062 0.000000
0.711069 0.141440 0.000000
0.693782 0.210456 0.000000
0.669813 0.277445 0.000000
0.639393 0.341763 0.000000
0.602815 0.402788 0.000000
0.560433 0.459935 0.000000
0.512652 0.512652 0.000000
0.459935 0.560433 0.000000
0.402788 0.602815 0.000000
0.341763 0.639393 0.000000
0.277445 0.669813 0.000000
0.210456 0.693782 0.000000
0.141440 0.711069 0.000000
0.071062 0.721509 0.000000
0.000000 0.725000 0.000000
-0.071062 0.721509 0.000000
-0.141440 0.711069 0.000000
-0.210456 0.693782 0.000000
-0.277445 0.669813 0.000000
-0.341763 0.639393 0.000000
-0.402788 0.602815 0.000000
-0.459935 0.560433 0.000000
-0.512652 0.512652 0.000000
-0.560433 0.459935 0.000000
-0.602815 0.402788 0.000000
-0.639393 0.341763 0.000000
-0.669813 0.277445 0.000000
-0.693782 0.210456 0.000000
-0.711069 0.141440 0.000000
-0.721509 0.071062 0.000000
-0.725000 0.000000 0.000000
-0.721509 -0.071062 0.000000
-0.711069 -0.141440 0.000000
-0.693782 -0.210456 0.000000
-0.669813 -0.277445 0.000000
-0.639393 -0.341763 0.000000
-0.602815 -0.402788 0.000000
-0.560433 -0.459935 0.000000
-0.512652 -0.512652 0.000000
-0.459935 -0.560433 0.000000
-0.402788 -0.602815 0.000000
-0.341763 -0.639393 0.000000
-0.277445 -0.669813 0.000000
-0.210456 -0.693782 0.000000
-0.141440 -0.711069 0.000000
-0.071062 -0.721509 0.000000
-0.000000 -0.725000 0.000000
0.071062 -0.721509 0.000000
0.141440 -0.711069 0.000000
0.210456 -0.693782 0.000000
0.277445 -0.669813 0.000000
0.341763 -0.639393 0.000000
0.402788 -0.602815 0.000000
0.459935 -0.560433 0.000000
0.512652 -0.512652 0.000000
0.560433 -0.459935 0.000000
0.602815 -0.402788 0.000000
0.639393 -0.341763 0.000000
0.669813 -0.277445 0.000000
0.693782 -0.210456 0.000000
0.711069 -0.141440 0.000000
0.721509 -0.071062 0.000000
0.775000 0.000000 0.000000
0.771268 0.075963 0.000000
0.760109 0.151195 0.000000
0.741629 0.224971 0.000000
0.716007 0.296580 0.000000
0.683489 0.365332 0.000000
0.644389 0.430567 0.000000
0.599083 0.491655 0.000000
0.548008 0.548008 0.000000
0.491655 0.599083 0.000000
0.430567 0.644389 0.000000
0.365332 0.683489 0.000000
0.296580 0.716007 0.000000
0.224971 0.741629 0.000000
0.151195 0.760109 0.000000
0.075963 0.771268 0.000000
0.000000 0.775000 0.000000
-0.075963 0.771268 0.000000
-0.151195 0.760109 0.000000
-0.224971 0.741629 0.000000
-0.296580 0.716007 0.000000
-0.365332 0.683489 0.000000
-0.430567 0.644389 0.000000
-0.491655 0.599083 0.000000
-0.548008 0.548008 0.000000
-0.599083 0.491655 0.000000
-0.644389 0.430567 0.000000
-0.683489 0.365332 0.000000
-0.716007 0.296580 0.000000
-0.741629 0.224971 0.000000
-0.760109 0.151195 0.000000
-0.771268 0.075963 0.000000
-0.775000 0.000000 0.000000
-0.771268 -0.075963 0.000000
-0.760109 -0.151195 0.000000
-0.741629 -0.224971 0.000000
-0.716007 -0.296580 0.000000
-0.683489 -0.365332 0.000000
-0.644389 -0.430567 0.000000
-0.599083 -0.491655 0.000000
-0.548008 -0.548008 0.000000
-0.491655 -0.599083 0.000000
-0.430567 -0.644389 0.000000
-0.365332 -0.683489 0.000000
-0.296580 -0.716007 0.000000
-0.224971 -0.741629 0.000000
-0.151195 -0.760109 0.000000
-0.075963 -0.771268 0.000000
-0.000000 -0.775000 0.000000
0.075963 -0.771268 0.000000
0.151195 -0.760109 0.000000
0.224971 -0.741629 0.000000
0.296580 -0.716007 0.000000
0.365332 -0.683489 0.000000
0.430567 -0.644389 0.000000
0.491655 -0.599083 0.000000
0.548008 -0.548008 0.000000
0.599083 -0.491655 0.000000
0.644389 -0.430567 0.000000
0.683489 -0.365332 0.000000
0.716007 -0.296580 0.000000
0.741629 -0.224971 0.000000
0.760109 -0.151195 0.000000
0.771268 -0.075963 0.000000
3 0 64 1
3 1 64 65
3 1 65 2
3 2 65 66
3 2 66 3
3 3 66 67
3 3 67 4
3 4 67 68
3 4 68 5
3 5 68 69
3 5 69 6
3 6 69 70
3 6 70 7
3 7 70 71
3 7 71 8
3 8 71 72
3 8 72 9
3 9 72 73
3 9 73 10
3 10 73 74
3 10 74 11
3 11 74 75
3 11 75 12
3 12 75 76
3 12 76 13
3 13 76 77
3 13 77 14
3 14 77 78
3 14 78 15
3 15 78 79
3 15 79 16
3 16 79 80
3 16 80 17
3 17 80 81
3 17 81 18
3 18 81 82
3 18 82 19
3 19 82 83
3 19 83 20
3 20 83 84
3 20 84 21
3 21 84 85
3 21 85 22
3 22 85 86
3 22 86 23
3 23 86 87
3 23 87 24
3 24 87 88
3 24 88 25
3 25 88 89
3 25 89 26
3 26 89 90
3 26 90 27
3 27 90 91
3 27 91 28
3 28 91 92
3 28 92 29
3 29 92 93
3 29 93 30
3 30 93 94
3 30 94 31
3 31 94 95
3 31 95 32
3 32 95 96
3 32 96 33
3 33 96 97
3 33 97 34
3 34 97 98
3 34 98 35
3 35 98 99
3 35 99 36
3 36 99 100
3 36 100 37
3 37 100 101
3 37 101 38
3 38 101 102
3 38 102 39
3 39 102 103
3 39 103 40
3 40 103 104
3 40 104 41
3 41 104 105
3 41 105 42
3 42 105 106
3 42 106 43
3 43 106 107
3 43 107 44
3 44 107 108
3 44 108 45
3 45 108 109
3 45 109 46
3 46 109 110
3 46 110 47
3 47 110 111
3 47 111 48
3 48 111 112
3 48 112 49
3 49 112 113
3 49 113 50
3 50 113 114
3 50 114 51
3 51 114 115
3 51 115 52
3 52 115 116
3 52 116 53
3 53 116 117
3 53 117 54
3 54 117 118
3 54 118 55
3 55 118 119
3 55 119 56
3 56 119 120
3 56 120 57
3 57 120 121
3 57 121 58
3 58 121 122
3 58 122 59
3 59 122 123
3 59 123 60
3 60 123 124
3 60 124 61
3 61 124 125
3 61 125 62
3 62 125 126
3 62 126 63
3 63 126 127
3 63 127 0
3 0 127 64
