ply
format ascii 1.0
element vertex 34
property float x
property float y
property float z
element face 32
property list uchar int vertex_index
end_header
0.000000 -0.475000 0.000000
0.046558 -0.472713 0.000000
0.092668 -0.465873 0.000000
0.137885 -0.454547 0.000000
0.181775 -0.438843 0.000000
0.223913 -0.418913 0.000000
0.263896 -0.394948 0.000000
0.301337 -0.367180 0.000000
0.335876 -0.335876 0.000000
0.367180 -0.301337 0.000000
0.394948 -0.263896 0.000000
0.418913 -0.223913 0.000000
0.438843 -0.181775 0.000000
0.454547 -0.137885 0.000000
0.465873 -0.092668 0.000000
0.472713 -0.046558 0.000000
0.475000 0.000000 0.000000
0.000000 -0.525000 0.000000
0.051459 -0.522472 0.000000
0.102422 -0.514912 0.000000
0.152399 -0.502394 0.000000
0.200909 -0.485037 0.000000
0.247483 -0.463009 0.000000
0.291674 -0.436522 0.000000
0.333056 -0.405830 0.000000
0.371231 -0.371231 0.000000
0.405830 -0.333056 0.000000
0.436522 -0.291674 0.000000
0.463009 -0.247483 0.000000
0.485037 -0.200909 0.000000
0.502394 -0.152399 0.000000
0.514912 -0.102422 0.000000
0.522472 -0.051459 0.000000
0.525000 0.000000 0.000000
3 0 17 1
3 1 17 18
3 1 18 2
3 2 18 19
3 2 19 3
3 3 19 20
3 3 20 4
3 4 20 21
3 4 21 5
3 5 21 22
3 5 22 6
3 6 22 23
3 6 23 7
3 7 23 24
3 7 24 8
3 8 24 25
3 8 25 9
3 9 25 26
3 9 26 10
3 10 26 27
3 10 27 11
3 11 27 28
3 11 28 12
3 12 28 29
3 12 29 13
3 13 29 30
3 13 30 14
3 14 30 31
3 14 31 15
3 15 31 32
3 15 32 16
3 16 32 33
